<svg width="18" height="21" viewBox="0 0 18 21" fill="none" xmlns="http://www.w3.org/2000/svg">
<path d="M1.19995 14.6H16.8M2.99995 14.6V8.60001C2.99995 5.2863 5.68624 2.60001 8.99995 2.60001C12.3137 2.60001 15 5.2863 15 8.60001V14.6M6.59995 16.4V17C6.59995 18.3255 7.67447 19.4 8.99995 19.4C10.3254 19.4 11.4 18.3255 11.4 17V16.4" stroke="white" stroke-width="1.5" stroke-linecap="round" stroke-linejoin="round"/>
<path d="M16.3 4.39999C16.3 6.11207 14.9121 7.49999 13.2 7.49999C11.4879 7.49999 10.1 6.11207 10.1 4.39999C10.1 2.6879 11.4879 1.29999 13.2 1.29999C14.9121 1.29999 16.3 2.6879 16.3 4.39999Z" fill="#EA6868" stroke="#0B1A33"/>
</svg>
