<svg width="30" height="21" viewBox="0 0 30 21" fill="none" xmlns="http://www.w3.org/2000/svg">
<g clip-path="url(#clip0_2_303)">
<path d="M0.00078392 8.4947C0.188665 9.09009 0.558937 9.51724 1.18208 9.69855C2.15985 9.98357 3.22921 9.35667 3.51259 8.33798C3.54391 8.22812 3.56426 8.11519 3.59088 7.98459C3.75214 8.06679 3.89619 8.12672 3.87584 8.35335C3.68796 10.4384 4.25943 12.3767 5.1096 14.2504C6.19383 16.6412 7.72037 18.7539 9.43322 20.7451C9.50117 20.827 9.58744 20.8924 9.68533 20.9363C9.78322 20.9801 9.8901 21.0012 9.99765 20.9979C11.179 20.9979 12.361 21.0048 13.5424 20.9979C14.0449 20.9979 14.3025 20.6507 14.1913 20.1705C14.1224 19.8724 14.0504 19.5736 13.9674 19.2793C13.9228 19.1203 13.9479 19.0489 14.1334 19.0527C15.4423 19.0573 16.7507 19.0573 18.0585 19.0527C18.2034 19.0527 18.2597 19.1142 18.3005 19.2432C18.421 19.6274 18.5517 20.0115 18.6856 20.3872C18.8062 20.7283 18.9988 20.8627 19.3628 20.8635C20.5543 20.8635 21.7455 20.8635 22.9364 20.8635C23.5016 20.8635 23.7592 20.5662 23.6621 20.0184C23.5651 19.4706 23.457 18.9075 23.3427 18.3544C23.3051 18.1746 23.3263 18.0678 23.5103 17.9626C24.4991 17.4034 25.2835 16.553 25.7523 15.5318C25.8102 15.4105 25.8729 15.3298 26.0153 15.3014C27.9004 14.8857 29.0363 13.688 29.6383 11.9411C29.8147 11.4029 29.9326 10.848 29.9898 10.2855C30.036 9.8883 29.8833 9.6586 29.4857 9.52262C28.9799 9.34822 28.4735 9.17691 27.963 9.01481C27.7971 8.96257 27.7204 8.88958 27.6992 8.70213C27.5959 7.6868 27.2145 6.71785 26.5954 5.89803C26.4741 5.7367 26.4811 5.66756 26.6479 5.54464C27.5143 4.92472 28.1618 4.05479 28.5001 3.05629C28.6621 2.58843 28.5635 2.34797 28.1087 2.11903C26.0733 1.09189 23.9541 0.870632 21.7465 1.4376C21.59 1.48341 21.4215 1.46742 21.2768 1.39303C18.4938 0.0824055 15.5926 -0.413108 12.5787 0.409684C10.0307 1.09749 7.72999 2.47179 5.93707 4.37691C5.27792 5.06033 4.74588 5.85181 4.36512 6.71544C4.30092 6.86371 4.25787 6.886 4.09739 6.80379C3.77564 6.63785 3.58855 6.4335 3.5494 6.05168C3.50009 5.623 3.28871 5.23196 3.02802 4.87856C2.79317 4.56205 2.43385 4.49444 2.13246 4.69649C1.84515 4.89239 1.78174 5.24041 1.97589 5.56154C1.99624 5.59457 2.01973 5.6253 2.04087 5.65757C2.3313 6.1116 2.32659 6.10392 1.8107 6.20533C0.962883 6.37204 0.421158 6.89675 0.108023 7.66884C0.072794 7.75488 0.086113 7.86167 0.00078392 7.92697V8.4947ZM23.6746 9.36435C23.369 9.36315 23.0762 9.2439 22.8595 9.0324C22.6428 8.8209 22.5197 8.53417 22.5168 8.23427C22.5172 8.08352 22.548 7.93433 22.6072 7.79526C22.6665 7.65619 22.7532 7.52997 22.8623 7.42384C22.9714 7.31771 23.1007 7.23376 23.243 7.17679C23.3852 7.11983 23.5375 7.09097 23.6911 7.09189C23.9965 7.0931 24.289 7.21274 24.5048 7.42472C24.7207 7.6367 24.8424 7.92383 24.8434 8.22351C24.8446 8.37416 24.8151 8.52353 24.7567 8.66286C24.6983 8.80219 24.6121 8.92869 24.5033 9.03493C24.3944 9.14118 24.2651 9.22504 24.1228 9.2816C23.9805 9.33817 23.8282 9.3663 23.6746 9.36435ZM10.9261 4.27626C10.9316 4.15872 11.0044 4.0965 11.0827 4.0312C11.5477 3.6204 12.0782 3.28717 12.653 3.04476C14.0621 2.45091 15.5268 2.39867 17.0174 2.66064C17.6037 2.75749 18.1786 2.91191 18.7334 3.12159C18.8633 3.17229 18.9643 3.25296 18.9017 3.40354C18.839 3.55411 18.7247 3.56717 18.5885 3.50802C18.6137 3.49939 18.5354 3.48651 18.5017 3.47345C17.5179 3.12539 16.4811 2.94355 15.4353 2.93568C13.9865 2.89414 12.5472 3.37487 11.4349 4.28702C11.3724 4.34759 11.3015 4.3993 11.2244 4.44067C11.0529 4.5075 10.9637 4.42223 10.9261 4.27626ZM2.34617 7.61659C2.33677 8.01224 2.21935 8.33798 1.82402 8.50238C1.74813 8.53653 1.66318 8.54622 1.58133 8.53008C1.49949 8.51393 1.42495 8.47277 1.3684 8.4125C1.24628 8.29572 1.26899 8.15283 1.3324 8.01455C1.48896 7.67959 1.73947 7.46525 2.11523 7.4061C2.29216 7.37844 2.41271 7.40917 2.34617 7.61659Z" fill="url(#paint0_linear_2_303)"/>
<path d="M0.00078392 8.4947C0.188665 9.09009 0.558937 9.51724 1.18208 9.69855C2.15985 9.98357 3.22921 9.35667 3.51259 8.33798C3.54391 8.22812 3.56426 8.11519 3.59088 7.98459C3.75214 8.06679 3.89619 8.12672 3.87584 8.35335C3.68796 10.4384 4.25943 12.3767 5.1096 14.2504C6.19383 16.6412 7.72037 18.7539 9.43322 20.7451C9.50117 20.827 9.58744 20.8924 9.68533 20.9363C9.78322 20.9801 9.8901 21.0012 9.99765 20.9979C11.179 20.9979 12.361 21.0048 13.5424 20.9979C14.0449 20.9979 14.3025 20.6507 14.1913 20.1705C14.1224 19.8724 14.0504 19.5736 13.9674 19.2793C13.9228 19.1203 13.9479 19.0489 14.1334 19.0527C15.4423 19.0573 16.7507 19.0573 18.0585 19.0527C18.2034 19.0527 18.2597 19.1142 18.3005 19.2432C18.421 19.6274 18.5517 20.0115 18.6856 20.3872C18.8062 20.7283 18.9988 20.8627 19.3628 20.8635C20.5543 20.8635 21.7455 20.8635 22.9364 20.8635C23.5016 20.8635 23.7592 20.5662 23.6621 20.0184C23.5651 19.4706 23.457 18.9075 23.3427 18.3544C23.3051 18.1746 23.3263 18.0678 23.5103 17.9626C24.4991 17.4034 25.2835 16.553 25.7523 15.5318C25.8102 15.4105 25.8729 15.3298 26.0153 15.3014C27.9004 14.8857 29.0363 13.688 29.6383 11.9411C29.8147 11.4029 29.9326 10.848 29.9898 10.2855C30.036 9.8883 29.8833 9.6586 29.4857 9.52262C28.9799 9.34822 28.4735 9.17691 27.963 9.01481C27.7971 8.96257 27.7204 8.88958 27.6992 8.70213C27.5959 7.6868 27.2145 6.71785 26.5954 5.89803C26.4741 5.7367 26.4811 5.66756 26.6479 5.54464C27.5143 4.92472 28.1618 4.05479 28.5001 3.05629C28.6621 2.58843 28.5635 2.34797 28.1087 2.11903C26.0733 1.09189 23.9541 0.870632 21.7465 1.4376C21.59 1.48341 21.4215 1.46742 21.2768 1.39303C18.4938 0.0824055 15.5926 -0.413108 12.5787 0.409684C10.0307 1.09749 7.72999 2.47179 5.93707 4.37691C5.27792 5.06033 4.74588 5.85181 4.36512 6.71544C4.30092 6.86371 4.25787 6.886 4.09739 6.80379C3.77564 6.63785 3.58855 6.4335 3.5494 6.05168C3.50009 5.623 3.28871 5.23196 3.02802 4.87856C2.79317 4.56205 2.43385 4.49444 2.13246 4.69649C1.84515 4.89239 1.78174 5.24041 1.97589 5.56154C1.99624 5.59457 2.01973 5.6253 2.04087 5.65757C2.3313 6.1116 2.32659 6.10392 1.8107 6.20533C0.962883 6.37204 0.421158 6.89675 0.108023 7.66884C0.072794 7.75488 0.086113 7.86167 0.00078392 7.92697V8.4947ZM23.6746 9.36435C23.369 9.36315 23.0762 9.2439 22.8595 9.0324C22.6428 8.8209 22.5197 8.53417 22.5168 8.23427C22.5172 8.08352 22.548 7.93433 22.6072 7.79526C22.6665 7.65619 22.7532 7.52997 22.8623 7.42384C22.9714 7.31771 23.1007 7.23376 23.243 7.17679C23.3852 7.11983 23.5375 7.09097 23.6911 7.09189C23.9965 7.0931 24.289 7.21274 24.5048 7.42472C24.7207 7.6367 24.8424 7.92383 24.8434 8.22351C24.8446 8.37416 24.8151 8.52353 24.7567 8.66286C24.6983 8.80219 24.6121 8.92869 24.5033 9.03493C24.3944 9.14118 24.2651 9.22504 24.1228 9.2816C23.9805 9.33817 23.8282 9.3663 23.6746 9.36435ZM10.9261 4.27626C10.9316 4.15872 11.0044 4.0965 11.0827 4.0312C11.5477 3.6204 12.0782 3.28717 12.653 3.04476C14.0621 2.45091 15.5268 2.39867 17.0174 2.66064C17.6037 2.75749 18.1786 2.91191 18.7334 3.12159C18.8633 3.17229 18.9643 3.25296 18.9017 3.40354C18.839 3.55411 18.7247 3.56717 18.5885 3.50802C18.6137 3.49939 18.5354 3.48651 18.5017 3.47345C17.5179 3.12539 16.4811 2.94355 15.4353 2.93568C13.9865 2.89414 12.5472 3.37487 11.4349 4.28702C11.3724 4.34759 11.3015 4.3993 11.2244 4.44067C11.0529 4.5075 10.9637 4.42223 10.9261 4.27626ZM2.34617 7.61659C2.33677 8.01224 2.21935 8.33798 1.82402 8.50238C1.74813 8.53653 1.66318 8.54622 1.58133 8.53008C1.49949 8.51393 1.42495 8.47277 1.3684 8.4125C1.24628 8.29572 1.26899 8.15283 1.3324 8.01455C1.48896 7.67959 1.73947 7.46525 2.11523 7.4061C2.29216 7.37844 2.41271 7.40917 2.34617 7.61659Z" fill="#74C681"/>
</g>
<defs>
<linearGradient id="paint0_linear_2_303" x1="14.9993" y1="0.00769043" x2="14.9993" y2="21.001" gradientUnits="userSpaceOnUse">
<stop stop-color="#4ACAFF"/>
<stop offset="1" stop-color="#0A8CC2"/>
</linearGradient>
<clipPath id="clip0_2_303">
<rect width="30" height="21" fill="white" transform="matrix(-1 0 0 1 30 0)"/>
</clipPath>
</defs>
</svg>
