<svg width="29" height="29" viewBox="0 0 29 29" fill="none" xmlns="http://www.w3.org/2000/svg">
<path d="M1.71636 28.3771C1.26004 28.2518 0.897046 28.0232 0.761105 27.5285C0.731492 27.4035 0.718886 27.275 0.72363 27.1466C0.72363 21.6284 0.72363 16.1099 0.72363 10.5911C0.72363 9.81996 1.15937 9.38276 1.93681 9.37981C3.09194 9.37981 4.24706 9.38644 5.40219 9.37317C5.64101 9.37317 5.71155 9.42995 5.71008 9.67693C5.69832 11.2127 5.70053 12.7491 5.70494 14.2849C5.70494 15.1777 6.15978 15.8155 6.93795 16.0293C7.16377 16.0934 7.4006 16.1088 7.63278 16.0744C7.86496 16.0399 8.08721 15.9565 8.28487 15.8295C8.83965 15.4903 9.40032 15.1578 9.94481 14.8024C10.1307 14.6808 10.2608 14.6992 10.4357 14.812C10.9596 15.1497 11.496 15.4667 12.0243 15.7978C12.6019 16.159 13.2 16.207 13.796 15.8715C14.3919 15.536 14.6616 15.0037 14.6594 14.3188C14.6542 12.7919 14.6594 11.265 14.6594 9.73811C14.6594 9.37538 14.6594 9.37538 15.0341 9.37538C15.511 9.37538 15.9894 9.38128 16.4641 9.37538C16.5266 9.36863 16.5896 9.3818 16.6442 9.41304C16.6988 9.44427 16.7422 9.49199 16.7683 9.54939C17.4142 10.6916 18.3552 11.6379 19.4923 12.2883C19.5444 12.314 19.5872 12.3554 19.6147 12.4067C19.6423 12.458 19.6531 12.5166 19.6458 12.5744C19.6458 17.4581 19.6446 22.3418 19.6422 27.2255C19.6422 27.8087 19.3622 28.1213 18.6553 28.3763L1.71636 28.3771ZM10.1983 21.3996H7.3399C7.18418 21.3893 7.02794 21.4083 6.87917 21.4556C6.69638 21.5234 6.54363 21.6543 6.44824 21.8249C6.35284 21.9954 6.32104 22.1944 6.35851 22.3863C6.39599 22.5782 6.50029 22.7504 6.65277 22.8722C6.80524 22.994 6.99594 23.0574 7.19073 23.051C7.8866 23.0621 8.5832 23.0547 9.27981 23.0547C10.5525 23.0547 11.8259 23.0547 13.1008 23.0547C13.494 23.0547 13.8019 22.9146 13.9613 22.5386C14.2001 21.9724 13.7982 21.4084 13.1405 21.4018C12.1588 21.3929 11.1756 21.4003 10.1983 21.3996Z" fill="#0DA0BD"/>
<path d="M28.8892 6.46615C28.8378 6.70576 28.79 6.94685 28.7342 7.18573C28.432 8.4797 27.6918 9.62841 26.6398 10.4359C25.5877 11.2435 24.289 11.6598 22.9653 11.6138C21.6415 11.5679 20.3746 11.0626 19.3806 10.1841C18.3867 9.30555 17.7273 8.10827 17.515 6.79644C16.9132 3.15727 19.9281 -0.13391 23.5963 0.160999C24.9104 0.258047 26.1505 0.80817 27.1064 1.71805C28.0623 2.62794 28.675 3.84155 28.8407 5.15306C28.8519 5.20562 28.8682 5.25698 28.8892 5.30642V6.46615ZM20.0237 5.89033C20.0211 5.99189 20.0387 6.09293 20.0754 6.1876C20.1121 6.28227 20.1672 6.36868 20.2375 6.44181C20.6615 6.89892 21.0825 7.35972 21.5168 7.80724C21.8732 8.17588 22.3846 8.17219 22.7329 7.79102C23.7227 6.70797 24.7015 5.61459 25.6832 4.52343C25.7622 4.43947 25.8218 4.33903 25.8576 4.2293C25.8934 4.11956 25.9046 4.00324 25.8904 3.88865C25.8507 3.5495 25.6737 3.30324 25.3474 3.19339C25.1918 3.13356 25.0214 3.12429 24.8603 3.16689C24.6992 3.20949 24.5555 3.3018 24.4495 3.43079C23.7146 4.24179 22.9798 5.04689 22.2582 5.86378C22.1333 6.0046 22.065 6.00092 21.9489 5.86378C21.7777 5.6602 21.5957 5.46602 21.4037 5.28209C21.2837 5.16655 21.1311 5.09095 20.9667 5.06562C20.8023 5.04029 20.6342 5.06646 20.4851 5.14053C20.3428 5.2055 20.2229 5.31147 20.1407 5.44498C20.0585 5.5785 20.0178 5.73353 20.0237 5.89033Z" fill="#0DA0BD"/>
<path d="M10.2056 9.37686C11.0484 9.37686 11.892 9.38202 12.7341 9.37317C12.9369 9.37317 13.0206 9.40783 13.0192 9.63933C13.0081 11.1471 13.014 12.6548 13.0118 14.1625C13.0118 14.2399 13.0537 14.3468 12.9729 14.3903C12.892 14.4338 12.8259 14.3387 12.759 14.2981C12.2344 13.9796 11.7105 13.6604 11.191 13.3331C10.5164 12.9084 9.85212 12.9106 9.1783 13.339C8.6529 13.6737 8.11576 13.9892 7.58816 14.321C7.43238 14.4183 7.35669 14.4456 7.35743 14.2082C7.36282 12.6732 7.36282 11.1382 7.35743 9.60321C7.35743 9.41741 7.42209 9.37243 7.59551 9.37391C8.46479 9.38054 9.33555 9.37686 10.2056 9.37686Z" fill="#0DA0BD"/>
</svg>
