<svg width="27" height="27" viewBox="0 0 27 27" fill="none" xmlns="http://www.w3.org/2000/svg">
<path d="M9.4832 26.3761H9.17425C9.01726 26.2598 8.86998 26.1309 8.73388 25.9907C5.92515 23.1797 3.11527 20.3699 0.304242 17.5611C-0.095531 17.1614 -0.0982803 16.9157 0.29874 16.5187C5.70611 11.1108 11.1135 5.70348 16.5209 0.296564C16.9179 -0.100456 17.1628 -0.0990749 17.564 0.302074C20.3681 3.10622 23.172 5.90989 25.9757 8.71312C26.1233 8.85387 26.2576 9.00797 26.3769 9.17344V9.4824C26.304 9.61796 26.2113 9.74181 26.1016 9.84982C20.6888 15.2595 15.2777 20.6705 9.86852 26.0829C9.75735 26.2015 9.62711 26.3006 9.4832 26.3761V26.3761ZM14.1924 16.4946C15.6821 16.5029 16.5243 15.649 16.494 14.3616C16.4741 13.4967 16.1397 12.7425 15.6325 12.0647C14.7814 10.926 13.7101 10.1154 12.2568 9.92001C11.1559 9.77207 10.2153 10.3941 9.9683 11.4193C9.87776 11.8141 9.88059 12.2245 9.97655 12.618C10.2566 13.8352 10.9612 14.7737 11.9238 15.5306C12.6442 16.0976 13.4513 16.474 14.191 16.4946H14.1924ZM3.91665 17.579C4.03087 17.5879 4.16986 17.4944 4.29509 17.3692C4.98684 16.6769 5.67813 15.9852 6.36896 15.2939C6.64832 15.0139 6.67034 14.6904 6.43777 14.4531C6.2052 14.2157 5.87974 14.2349 5.59831 14.5143C5.17171 14.9368 4.74854 15.3627 4.32399 15.7872C4.03363 16.079 3.73913 16.3673 3.45495 16.6645C3.37606 16.7394 3.32371 16.8379 3.30583 16.9452C3.28795 17.0525 3.30551 17.1627 3.35586 17.2591C3.45013 17.4655 3.61458 17.5735 3.91665 17.579ZM22.4947 8.80259C22.4304 8.80128 22.3664 8.8136 22.3071 8.83874C22.2478 8.86388 22.1945 8.90125 22.1507 8.94843C21.409 9.68743 20.6695 10.428 19.9323 11.1702C19.8571 11.2425 19.8062 11.3364 19.787 11.439C19.7678 11.5415 19.781 11.6474 19.825 11.742C19.8596 11.8353 19.9199 11.9168 19.9989 11.9771C20.078 12.0374 20.1725 12.074 20.2716 12.0826C20.4642 12.1081 20.6211 12.0276 20.7532 11.8927C21.4629 11.1831 22.1725 10.4721 22.8821 9.75968C22.9248 9.71837 22.9624 9.67218 22.9943 9.62206C23.0463 9.54229 23.0749 9.44956 23.077 9.35436C23.0791 9.25915 23.0545 9.16525 23.006 9.08329C22.9574 8.99205 22.8832 8.91705 22.7924 8.86753C22.7017 8.81801 22.5984 8.79614 22.4954 8.80464L22.4947 8.80259Z" fill="#A562BD"/>
<path d="M26.3751 18.29C26.265 18.5226 26.0689 18.634 25.8336 18.7221C22.2157 20.0524 18.5994 21.3843 14.9847 22.7178C14.922 22.7412 14.8574 22.7584 14.7865 22.7811C14.7762 22.6834 14.8512 22.6558 14.8931 22.6139C16.2932 21.2106 17.6922 19.8079 19.0904 18.4056C19.2081 18.2872 19.2659 18.2397 19.3911 18.4056C19.5287 18.5907 19.7427 18.6416 19.9705 18.5583C20.8794 18.226 21.7897 17.8971 22.6953 17.5558C23.0131 17.4354 23.1439 17.143 23.0393 16.8519C22.9278 16.5498 22.6347 16.417 22.3051 16.5354C21.7085 16.7501 21.1154 16.973 20.5209 17.1918C20.4521 17.2173 20.3778 17.2379 20.2966 17.2641C20.2966 17.1567 20.3751 17.1265 20.4232 17.0755C21.7264 15.7696 23.0306 14.4647 24.3356 13.1611C24.5276 12.9691 24.5283 12.9698 24.6246 13.2347C25.1751 14.7393 25.7232 16.2439 26.2691 17.7485C26.298 17.8276 26.3379 17.9026 26.373 17.979L26.3751 18.29Z" fill="#A562BD"/>
<path d="M4.797 26.3773C4.56581 26.2658 4.45296 26.0725 4.36695 25.8358C3.90594 24.5463 3.43254 23.2617 2.96603 21.9743C2.94057 21.9055 2.89309 21.8367 2.90617 21.7789L6.8344 25.7078L5.10595 26.3773H4.797Z" fill="#A562BD"/>
<path d="M2.90425 12.287C2.04828 13.1443 1.21364 13.981 0.365243 14.8329C0.251022 14.5088 0.114094 14.1771 0.0212037 13.8338C-0.0135796 13.7242 -0.00534051 13.6054 0.0442432 13.5017C0.093827 13.3979 0.181039 13.3169 0.288178 13.2751C1.1524 12.9304 2.02833 12.6145 2.90425 12.287Z" fill="#A562BD"/>
</svg>
