<svg width="31" height="31" viewBox="0 0 31 31" fill="none" xmlns="http://www.w3.org/2000/svg">
<path d="M0 10.901C0.219195 10.3564 0.617142 10.1412 1.20678 10.1518C2.52761 10.176 3.84925 10.1655 5.17008 10.1518C5.42001 10.1518 5.49362 10.2173 5.49362 10.4714C5.48283 12.1662 5.48149 13.8615 5.48957 15.5574C5.48957 16.5283 5.99995 17.2314 6.86055 17.4588C7.10973 17.5263 7.37034 17.5405 7.62538 17.5005C7.88042 17.4605 8.12417 17.3672 8.34072 17.2266C8.95868 16.8471 9.58229 16.4741 10.1954 16.0874C10.3515 15.9886 10.4663 15.9773 10.6289 16.0817C11.2145 16.4563 11.8147 16.8099 12.4035 17.1789C13.0449 17.5834 13.7106 17.6643 14.3811 17.2929C15.0516 16.9215 15.3461 16.305 15.3412 15.5323C15.3315 13.8469 15.3412 12.1616 15.3331 10.4762C15.3331 10.2335 15.3922 10.1428 15.6486 10.1525C16.1929 10.1712 16.7381 10.1671 17.2824 10.1525C17.3655 10.1428 17.4495 10.1599 17.5222 10.2012C17.595 10.2425 17.6526 10.306 17.6868 10.3824C18.381 11.599 19.3859 12.6092 20.5986 13.3097C20.7871 13.4197 20.834 13.5387 20.834 13.7385C20.8281 16.9685 20.8267 20.1979 20.83 23.4268V29.7289C20.83 30.661 20.5024 30.9919 19.5803 30.9919C13.4871 30.9919 7.39385 30.9946 1.30061 31C0.706115 31 0.262872 30.8382 0.00647084 30.2848L0 10.901ZM10.4453 23.3523H7.3313C7.21056 23.35 7.08979 23.3554 6.96975 23.3685C6.75749 23.3952 6.56176 23.4969 6.41794 23.6553C6.27411 23.8137 6.19167 24.0183 6.18552 24.2322C6.17936 24.4461 6.2499 24.6552 6.38438 24.8216C6.51886 24.988 6.70842 25.1008 6.91879 25.1396C7.05817 25.1612 7.19917 25.1707 7.34019 25.168C9.38547 25.168 11.4313 25.168 13.4776 25.168C13.6187 25.1714 13.7597 25.1622 13.899 25.1405C14.0599 25.1163 14.2105 25.0464 14.3328 24.9391C14.4551 24.8318 14.544 24.6916 14.589 24.5352C14.7888 23.9292 14.3649 23.3645 13.6807 23.3564C12.6009 23.3426 11.5243 23.3523 10.4453 23.3523Z" fill="#F97777"/>
<path d="M25.0045 0C25.5707 0.101138 26.1369 0.156967 26.6853 0.34387C28.0022 0.784389 29.1373 1.64656 29.9152 2.79711C30.6932 3.94765 31.0706 5.32249 30.9891 6.70911C30.8443 9.48758 28.8053 11.8615 26.0293 12.4772C22.5416 13.2499 19.1631 10.9731 18.4902 7.39523C17.8552 4.02692 20.2413 0.666691 23.6546 0.108408C23.9029 0.0679523 24.1601 0.0938564 24.3987 0H25.0045ZM22.485 3.32623C22.227 3.33755 21.9415 3.49777 21.7837 3.84488C21.6996 4.00845 21.6707 4.19483 21.7011 4.37623C21.7316 4.55762 21.8199 4.7243 21.9528 4.8514C22.3774 5.2956 22.815 5.72927 23.2574 6.15648C23.3893 6.28351 23.3998 6.35715 23.2574 6.48984C22.8409 6.8863 22.4389 7.29895 22.0345 7.7035C21.6001 8.14204 21.5743 8.68898 21.9665 9.07007C22.3451 9.43741 22.8886 9.40666 23.3116 8.98916C23.7161 8.58461 24.1302 8.18007 24.5249 7.76661C24.6527 7.63392 24.7263 7.62583 24.8581 7.76661C25.2625 8.18978 25.6799 8.59998 26.0965 9.01101C26.513 9.42204 27.0468 9.43822 27.4173 9.07655C27.8047 8.69708 27.7926 8.15497 27.3785 7.73343C26.9643 7.31188 26.5575 6.89925 26.1353 6.49389C26.0018 6.36605 25.9962 6.29403 26.1353 6.16296C26.5575 5.75841 26.9676 5.3409 27.3777 4.9234C27.7877 4.5059 27.8039 3.94601 27.4238 3.57706C27.0436 3.2081 26.5049 3.24209 26.1005 3.64017C25.684 4.0512 25.2674 4.46221 24.8622 4.88376C24.7336 5.01807 24.66 5.02211 24.5289 4.88376C24.1172 4.45412 23.6902 4.03987 23.2704 3.61751C23.0876 3.43304 22.8724 3.32137 22.485 3.32623Z" fill="#F97777"/>
<path d="M10.428 10.159C11.3662 10.159 12.3045 10.1663 13.2419 10.1541C13.4692 10.1541 13.5307 10.2173 13.5299 10.4422C13.5212 12.1073 13.5212 13.7725 13.5299 15.4376C13.5299 15.669 13.4967 15.7273 13.2735 15.5841C12.6879 15.2087 12.0877 14.8559 11.494 14.4893C10.7709 14.0395 10.0535 14.0411 9.3312 14.4893C8.74075 14.8567 8.14221 15.2111 7.55176 15.5841C7.33418 15.7224 7.2897 15.669 7.2905 15.4344C7.2959 13.7595 7.2959 12.0844 7.2905 10.409C7.2905 10.2108 7.35279 10.1509 7.54852 10.1534C8.51104 10.1639 9.46951 10.159 10.428 10.159Z" fill="#F97777"/>
</svg>
