<svg width="24" height="24" viewBox="0 0 24 24" fill="none" xmlns="http://www.w3.org/2000/svg">
<path d="M0.753958 23.9247C0.192252 23.7374 -0.00247281 23.3392 2.36578e-05 22.7594C0.0143784 19.7549 0.00688899 16.7504 0.00688899 13.7453C0.00688899 13.0294 0.368252 12.6662 1.07912 12.6656C1.54596 12.6656 2.0153 12.6725 2.48027 12.6618C2.64753 12.6575 2.68685 12.7124 2.6856 12.8722C2.67853 13.7459 2.67853 14.6178 2.6856 15.4878C2.69247 16.2992 3.26915 16.8391 4.03931 16.7785C4.22616 16.7612 4.40614 16.6993 4.56419 16.5981C4.86315 16.4165 5.16522 16.2399 5.45855 16.0489C5.58338 15.9666 5.67949 15.9547 5.81118 16.0439C6.07456 16.2224 6.35541 16.3753 6.62253 16.5482C7.05005 16.8228 7.49318 16.8784 7.94629 16.6325C8.41125 16.3828 8.59225 15.9628 8.591 15.4466C8.58788 14.5978 8.59662 13.7497 8.58538 12.9009C8.58538 12.7036 8.63906 12.6556 8.83128 12.6587C9.56317 12.6708 10.2948 12.6708 11.0263 12.6587C11.2192 12.6556 11.271 12.7037 11.2703 12.9003C11.2641 16.5746 11.2626 20.2488 11.266 23.9228L0.753958 23.9247ZM5.63393 21.0587C6.23308 21.0587 6.83224 21.0587 7.43139 21.0587C7.72597 21.0587 7.96376 20.9501 8.10668 20.6842C8.36632 20.1987 8.02243 19.6657 7.43576 19.6619C6.23745 19.6551 5.03915 19.6619 3.84084 19.6619C3.73969 19.6578 3.63863 19.672 3.54251 19.7037C3.38758 19.7604 3.25757 19.8699 3.17529 20.0129C3.093 20.1559 3.0637 20.3233 3.09253 20.4858C3.14994 20.8191 3.43579 21.0556 3.81338 21.0599C4.42002 21.0637 5.02729 21.0587 5.63393 21.0587Z" fill="#F2C264"/>
<path d="M12.6667 23.9247C12.6667 20.2583 12.6651 16.5918 12.6617 12.9253C12.6617 12.71 12.7192 12.6569 12.9295 12.6607C13.661 12.6738 14.393 12.6713 15.1245 12.6607C15.2968 12.6607 15.3486 12.7019 15.3467 12.8791C15.3375 13.7529 15.3375 14.6247 15.3467 15.4948C15.3542 16.2911 15.9234 16.8291 16.6848 16.7792C16.8796 16.7625 17.0674 16.6983 17.2315 16.592C17.5373 16.4047 17.8457 16.225 18.1459 16.0303C18.1906 15.9953 18.2458 15.9767 18.3025 15.9774C18.3593 15.978 18.4141 15.998 18.4579 16.034C18.7375 16.2169 19.0252 16.3879 19.3117 16.5608C20.231 17.1168 21.2365 16.5608 21.2496 15.4848C21.2602 14.621 21.2571 13.7566 21.2496 12.8928C21.2496 12.7131 21.2908 12.6519 21.4793 12.6582C21.9068 12.6731 22.3362 12.6813 22.7637 12.6582C23.3435 12.6276 23.7405 12.8485 23.9289 13.4071V23.177C23.8777 23.3551 23.7821 23.5172 23.6511 23.6482C23.5201 23.7792 23.358 23.8748 23.18 23.926L12.6667 23.9247ZM18.2944 19.6607C17.6878 19.6607 17.0805 19.6551 16.4739 19.6607C16.0445 19.6657 15.7486 19.9528 15.7443 20.3473C15.7411 20.4413 15.7573 20.5349 15.7919 20.6224C15.8265 20.7099 15.8786 20.7893 15.9452 20.8558C16.0117 20.9223 16.0912 20.9744 16.1787 21.0089C16.2662 21.0434 16.3599 21.0595 16.4539 21.0563C17.6834 21.0644 18.9129 21.0613 20.1424 21.0563C20.2641 21.0595 20.3844 21.03 20.4907 20.9707C20.597 20.9114 20.6854 20.8245 20.7466 20.7192C20.8129 20.615 20.85 20.4949 20.8538 20.3714C20.8575 20.2479 20.8279 20.1257 20.7681 20.0176C20.7082 19.9096 20.6202 19.8197 20.5135 19.7574C20.4068 19.6951 20.2853 19.6628 20.1618 19.6639C19.5401 19.6477 18.9173 19.6607 18.2944 19.6607Z" fill="#F2C264"/>
<path d="M11.9433 11.2637C10.1527 11.2637 8.36153 11.2637 6.57093 11.2675C6.39556 11.2675 6.33252 11.2325 6.33252 11.0409C6.33876 7.70855 6.34063 4.37618 6.33814 1.04381C6.33814 0.372263 6.71261 0.00652176 7.38166 0.00527353C7.85661 0.00527353 8.33219 0.0140215 8.80652 0.000290948C8.98689 -0.00470199 9.02496 0.0539547 9.02309 0.223715C9.01498 1.08812 9.02309 1.95252 9.01747 2.8163C9.0131 3.31996 9.20471 3.71441 9.64159 3.96281C10.0785 4.21121 10.521 4.17313 10.9466 3.90913C11.2375 3.72814 11.5327 3.55464 11.8204 3.36928C11.8621 3.33564 11.9141 3.31729 11.9677 3.31729C12.0213 3.31729 12.0732 3.33564 12.115 3.36928C12.4021 3.55651 12.6973 3.72876 12.9887 3.90976C13.4138 4.17376 13.8544 4.21371 14.2938 3.96469C14.7331 3.71566 14.9185 3.31747 14.9185 2.81817C14.9116 1.95377 14.9185 1.08937 14.9129 0.225589C14.9129 0.0558289 14.9478 -0.00345254 15.1288 0.0015404C15.6281 0.0146469 16.1274 0.00153065 16.6236 0.00714771C17.1853 0.0108924 17.5629 0.372881 17.5953 0.928346C17.6003 1.00636 17.5991 1.08437 17.5991 1.16176V10.9492C17.5991 11.265 17.5991 11.265 17.2714 11.265L11.9433 11.2637ZM11.9901 6.99976C11.366 6.99976 10.745 6.9929 10.1222 6.99976C9.71399 7.006 9.41628 7.30185 9.40755 7.68318C9.40636 7.77715 9.42406 7.8704 9.45961 7.95739C9.49516 8.04439 9.54782 8.12333 9.61448 8.18958C9.68114 8.25583 9.76042 8.30803 9.84763 8.34305C9.93484 8.37806 10.0282 8.39518 10.1222 8.39342C11.3517 8.40216 12.5812 8.40029 13.8113 8.39342C13.9959 8.39648 14.1741 8.32608 14.3068 8.19774C14.4394 8.0694 14.5157 7.89365 14.5188 7.70909C14.5218 7.52452 14.4514 7.3463 14.3231 7.21363C14.1948 7.08096 14.019 7.00468 13.8344 7.00162C13.2203 6.98789 12.6049 6.99976 11.9901 6.99976Z" fill="#F2C264"/>
<path d="M7.162 15.2279C6.89363 15.0656 6.63337 14.9158 6.3806 14.7536C5.88131 14.4353 5.39075 14.434 4.89333 14.7536C4.64368 14.9165 4.38031 15.0656 4.08198 15.2454V14.2792C4.08198 13.8043 4.08822 13.3293 4.07886 12.855C4.07886 12.7002 4.12629 12.659 4.27795 12.6596C5.18105 12.6665 6.08415 12.6646 6.98662 12.6596C7.10645 12.6596 7.19196 12.6597 7.19008 12.8244C7.18197 13.5952 7.18571 14.366 7.18447 15.1337C7.18061 15.1658 7.17307 15.1974 7.162 15.2279Z" fill="#F2C264"/>
<path d="M16.7438 15.2487V14.6245C16.7438 14.0335 16.7469 13.4418 16.7438 12.8502C16.7438 12.716 16.7694 12.658 16.9223 12.6586C17.8403 12.6654 18.759 12.6642 19.6777 12.6586C19.8069 12.6586 19.8544 12.6929 19.8531 12.8283C19.8481 13.6141 19.8531 14.3998 19.8531 15.2C19.7027 15.1906 19.6097 15.0876 19.4999 15.0265C19.3233 14.9279 19.1547 14.8161 18.9812 14.7144C18.5235 14.4406 18.0679 14.4419 17.6144 14.7182C17.3329 14.8879 17.0577 15.0571 16.7438 15.2487Z" fill="#F2C264"/>
<path d="M13.4767 2.56119C13.2271 2.40766 12.973 2.261 12.7278 2.10247C12.2166 1.77169 11.7117 1.77107 11.2012 2.1056C10.9615 2.26225 10.7131 2.40642 10.4728 2.55371C10.3929 2.51938 10.4216 2.45634 10.4216 2.40829C10.4216 1.66995 10.4248 0.931624 10.4167 0.193294C10.4167 0.0372643 10.4647 0.000451755 10.6139 0.00107587C11.5151 0.00794116 12.4169 0.00480839 13.3182 0.00418427C13.4193 0.00418427 13.516 -0.0170333 13.5141 0.14711C13.5073 0.932249 13.5098 1.71676 13.5079 2.5019C13.5079 2.51439 13.4954 2.52687 13.4767 2.56119Z" fill="#F2C264"/>
</svg>
