<svg width="213" height="45" viewBox="0 0 213 45" fill="none" xmlns="http://www.w3.org/2000/svg">
<path d="M0 6C0 4.34315 1.34315 3 3 3H209.094H210C211.657 3 213 4.34315 213 6V9.72V42C213 43.6569 211.657 45 210 45H3C1.34315 45 0 43.6569 0 42V6Z" fill="#DFAC09"/>
<path d="M0 3C0 1.34315 1.34315 0 3 0H209.094H210C211.657 0 213 1.34315 213 3V6.72V39C213 40.6569 211.657 42 210 42H3C1.34315 42 0 40.6569 0 39V3Z" fill="#FFCD2C"/>
<path d="M81.848 25.736C79.512 25.736 77.848 23.896 77.832 21.336C77.832 18.776 79.496 16.952 81.848 16.952C83.544 16.952 85.048 18.104 85.432 19.704L87.272 19.48C86.76 17.048 84.472 15.272 81.832 15.272C78.392 15.272 75.912 17.816 75.912 21.336C75.896 24.856 78.392 27.4 81.832 27.4C84.472 27.4 86.76 25.704 87.272 23.368L85.448 23.064C85.016 24.616 83.512 25.736 81.848 25.736ZM93.0355 18.552C90.4275 18.552 88.6195 20.36 88.6195 22.936C88.6195 25.512 90.4275 27.32 93.0355 27.32C95.6275 27.32 97.4515 25.512 97.4515 22.936C97.4515 20.36 95.6275 18.552 93.0355 18.552ZM93.0355 25.768C91.4675 25.768 90.3635 24.584 90.3635 22.936C90.3635 21.288 91.4675 20.104 93.0355 20.104C94.5875 20.104 95.7235 21.288 95.7235 22.936C95.7235 24.584 94.5875 25.768 93.0355 25.768ZM99.0433 18.872V27H100.787V22.328C100.787 21.032 101.795 20.104 103.011 20.104C104.227 20.104 104.947 20.968 104.947 22.168V27H106.675V22.04C106.675 20.024 105.379 18.552 103.395 18.552C102.339 18.552 101.331 19.064 100.755 19.912V18.872H99.0433ZM111.097 17.624C111.113 16.904 111.561 16.424 112.233 16.424C112.537 16.424 112.793 16.472 113.065 16.552V15.096C112.649 14.952 112.217 14.872 111.705 14.872C110.313 14.872 109.369 15.912 109.369 17.48V18.872H108.121V20.232H109.369V27H111.097V20.232H113.065V18.872H111.097V17.624ZM114.721 18.872V27H116.449V18.872H114.721ZM115.585 17.56C116.209 17.56 116.657 17.112 116.657 16.488C116.657 15.88 116.209 15.448 115.585 15.448C114.945 15.448 114.497 15.88 114.497 16.488C114.497 17.112 114.945 17.56 115.585 17.56ZM118.646 18.872V27H120.39V22.552C120.39 21.112 121.158 20.088 122.31 20.088C122.63 20.088 123.126 20.152 123.574 20.344V18.792C123.222 18.664 122.854 18.584 122.534 18.584C121.606 18.584 120.822 19.08 120.326 19.912V18.872H118.646ZM126.601 27V22.232C126.601 20.952 127.369 20.104 128.521 20.104C129.641 20.104 130.361 20.952 130.361 22.232V27H132.105V22.232C132.105 21 132.921 20.104 134.057 20.104C135.161 20.12 135.945 21 135.945 22.232V27H137.673V22.088C137.673 20.024 136.329 18.568 134.425 18.568C133.257 18.568 132.233 19.16 131.673 20.088C131.193 19.16 130.137 18.552 128.873 18.552C127.897 18.552 127.049 19.016 126.537 19.8V18.872H124.857V27H126.601Z" fill="#0B1A33"/>
</svg>
