<svg width="34" height="34" viewBox="0 0 34 34" fill="none" xmlns="http://www.w3.org/2000/svg">
<path d="M11.3333 12.4667C11.3333 9.33705 13.8704 6.8 17 6.8C20.1296 6.8 22.6667 9.33705 22.6667 12.4667C22.6667 15.5963 20.1296 18.1333 17 18.1333C13.8704 18.1333 11.3333 15.5963 11.3333 12.4667Z" fill="#C4CBD3"/>
<path fill-rule="evenodd" clip-rule="evenodd" d="M17 0C7.61116 0 0 7.61116 0 17C0 26.3888 7.61116 34 17 34C26.3888 34 34 26.3888 34 17C34 7.61116 26.3888 0 17 0ZM2.26667 17C2.26667 8.863 8.863 2.26667 17 2.26667C25.137 2.26667 31.7333 8.863 31.7333 17C31.7333 21.1923 29.9823 24.9757 27.1717 27.6587C26.8295 23.5928 23.4209 20.4 19.2667 20.4H14.7333C10.5791 20.4 7.17049 23.5928 6.82826 27.6587C4.01768 24.9757 2.26667 21.1923 2.26667 17Z" fill="#C4CBD3"/>
</svg>
